<svg width="16" height="16" viewBox="0 0 16 16" fill="none" xmlns="http://www.w3.org/2000/svg">
<g clip-path="url(#clip0)">
<path d="M12.8179 5.67022L13.7575 4.04262L15.2414 1.47291L14.8361 1.23814C13.4346 0.427026 11.8438 -5.37055e-05 10.2245 5.06546e-09C5.13786 5.06546e-09 1 4.13786 1 9.22449C0.999764 10.0307 1.10541 10.8335 1.31424 11.6122L1.43556 12.0648L5.20823 11.0541L5.95621 10.8533V14.5714H6.42514C6.96316 14.574 7.48704 14.3992 7.91564 14.0739C8.18828 13.8673 8.41543 13.6067 8.58294 13.3084C8.97118 13.4646 9.37971 13.5647 9.79621 13.6056C9.90355 14.2733 10.245 14.8811 10.7596 15.32C11.2741 15.7589 11.928 16.0004 12.6043 16.0012H14.6311V9.22449C14.6304 8.53107 14.4658 7.84762 14.1507 7.22993C13.8355 6.61224 13.3789 6.0778 12.8179 5.67022ZM9.75556 0.951204V2.98525C8.97614 3.04302 8.21463 3.24739 7.51101 3.58764L6.49429 1.8284C7.50904 1.31366 8.61952 1.01497 9.75556 0.951204ZM3.98525 8.75556H1.9512C2.01421 7.61969 2.31207 6.50923 2.82597 5.49429L4.58521 6.51101C4.2458 7.21479 4.04226 7.9763 3.98525 8.75556ZM5.82275 9.22449C5.82269 9.4522 5.84033 9.67956 5.87553 9.90453L4.98559 10.1429C4.98559 10.1314 4.98135 10.1205 4.97953 10.109C4.97771 10.0974 4.97528 10.0841 4.97346 10.0714C4.96557 10.0234 4.95829 9.97551 4.95223 9.92698C4.95193 9.92395 4.95193 9.9209 4.95223 9.91788C4.94555 9.86692 4.93949 9.81596 4.93464 9.76501L4.931 9.72679C4.92614 9.67704 4.9219 9.6273 4.91826 9.57756V9.57209C4.91462 9.52053 4.91219 9.46897 4.91037 9.41801C4.91037 9.40527 4.91037 9.39253 4.91037 9.37979C4.91037 9.32762 4.91037 9.27606 4.91037 9.22449C4.91198 7.81431 5.47288 6.46234 6.47004 5.46518C7.46719 4.46803 8.81916 3.90712 10.2293 3.90552C10.2833 3.90552 10.3373 3.90552 10.3913 3.90552H10.4429C10.4799 3.90552 10.5169 3.90855 10.5533 3.91098L10.614 3.91522L10.7183 3.92372L10.779 3.92918L10.8894 3.94192L10.9397 3.94859C10.9931 3.95526 11.0459 3.96315 11.0987 3.97225H11.1078C11.1575 3.98074 11.2072 3.98984 11.257 3.99955L11.3092 4.01046L11.4153 4.03352L11.476 4.04747L11.5767 4.07234L11.6343 4.08751L11.7411 4.11845L11.7896 4.1324C11.8406 4.14817 11.8915 4.16455 11.9419 4.18154L11.9558 4.18639C12.0019 4.20216 12.0474 4.21854 12.0935 4.23553L12.1427 4.25494C12.1766 4.26768 12.2106 4.28102 12.244 4.29498L12.2992 4.31803C12.3313 4.33137 12.3635 4.34533 12.395 4.35989L12.4484 4.38355L12.4763 4.39689L12.0159 5.19401C11.3449 4.89473 10.6098 4.7682 9.87737 4.82595C9.14498 4.88369 8.4387 5.12388 7.82296 5.52461C7.20721 5.92534 6.70159 6.47385 6.35221 7.12012C6.00283 7.76638 5.82081 8.48983 5.82275 9.22449ZM13.6884 10.0647V15.0627H12.5964C12.0912 15.0623 11.6069 14.8614 11.2496 14.5041C10.8924 14.1469 10.6915 13.6625 10.691 13.1573V12.6884H10.2221C9.64223 12.6876 9.07182 12.5416 8.56292 12.2637L8.05517 11.9859L7.88955 12.5404C7.81711 12.7775 7.68858 12.9936 7.51487 13.1705C7.34116 13.3473 7.12738 13.4798 6.89164 13.5565V10.1806L6.87587 10.1199C6.74925 9.64758 6.72407 9.15382 6.80197 8.67108C6.87988 8.18835 7.05911 7.72757 7.32787 7.31908C7.59664 6.91058 7.94884 6.56361 8.36132 6.301C8.7738 6.03839 9.23721 5.86609 9.72106 5.79543C10.2049 5.72477 10.6982 5.75735 11.1686 5.89103C11.6389 6.02471 12.0757 6.25646 12.45 6.57104C12.8244 6.88561 13.1279 7.27589 13.3406 7.71618C13.5533 8.15648 13.6704 8.63682 13.6841 9.12561H11.7823V10.0635L13.6884 10.0647Z" fill="#FF5A00"/>
</g>
<defs>
<clipPath id="clip0">
<rect width="14.2414" height="16" fill="white" transform="translate(1)"/>
</clipPath>
</defs>
</svg>
