<svg width="128" height="128" viewBox="0 0 128 128" fill="none" xmlns="http://www.w3.org/2000/svg">
<g clip-path="url(#clip0)">
<path d="M101.543 45.3617L109.06 32.3409L120.931 11.7833L117.689 9.90514C106.477 3.41621 93.7508 -0.000429644 80.7959 4.05237e-08C40.1029 4.05237e-08 7 33.1029 7 73.7959C6.99812 80.2458 7.84331 86.6679 9.5139 92.8977L10.4845 96.5181L40.6658 88.4328L46.6497 86.8265V116.571H50.4011C54.7053 116.592 58.8963 115.193 62.3251 112.591C64.5062 110.938 66.3234 108.853 67.6635 106.467C70.7694 107.717 74.0377 108.518 77.3697 108.845C78.2284 114.187 80.9603 119.049 85.0765 122.56C89.1926 126.072 94.4241 128.003 99.8346 128.01H116.049V73.7959C116.043 68.2485 114.726 62.781 112.205 57.8395C109.684 52.8979 106.031 48.6224 101.543 45.3617ZM77.0445 7.60963V23.882C70.8091 24.3441 64.717 25.9791 59.0881 28.7011L50.9544 14.6272C59.0723 10.5093 67.9561 8.11976 77.0445 7.60963ZM30.882 70.0445H14.6096C15.1137 60.9575 17.4966 52.0738 21.6078 43.9544L35.6817 52.0881C32.9664 57.7183 31.338 63.8104 30.882 70.0445ZM45.582 73.7959C45.5815 75.6176 45.7227 77.4365 46.0042 79.2363L38.8847 81.1435C38.8847 81.0513 38.8508 80.9639 38.8362 80.8717C38.8217 80.7795 38.8022 80.6728 38.7877 80.5708C38.7246 80.1875 38.6664 79.8041 38.6178 79.4158C38.6155 79.3916 38.6155 79.3672 38.6178 79.343C38.5644 78.9354 38.5159 78.5277 38.4771 78.12L38.448 77.8143C38.4091 77.4163 38.3752 77.0184 38.346 76.6204V76.5768C38.3169 76.1642 38.2975 75.7517 38.283 75.3441C38.283 75.2422 38.283 75.1403 38.283 75.0383C38.283 74.621 38.283 74.2085 38.283 73.7959C38.2958 62.5144 42.7831 51.6987 50.7603 43.7215C58.7375 35.7442 69.5533 31.257 80.8348 31.2441C81.2667 31.2441 81.6986 31.2441 82.1305 31.2441H82.5431C82.8391 31.2441 83.1351 31.2684 83.4263 31.2878L83.9116 31.3218L84.7463 31.3897L85.2317 31.4334L86.1149 31.5353L86.5177 31.5887C86.9448 31.6421 87.367 31.7052 87.7892 31.778H87.862C88.26 31.8459 88.6579 31.9187 89.0559 31.9964L89.4733 32.0837L90.3225 32.2681L90.8078 32.3798L91.6135 32.5787L92.0745 32.7001L92.9286 32.9476L93.3169 33.0592C93.7245 33.1854 94.1322 33.3164 94.535 33.4523L94.6466 33.4911C95.0155 33.6173 95.3794 33.7483 95.7483 33.8842L96.1414 34.0395C96.4132 34.1414 96.6849 34.2482 96.9519 34.3598L97.3935 34.5442C97.6507 34.651 97.9079 34.7626 98.1603 34.8791L98.5873 35.0684L98.8106 35.1751L95.1271 41.5521C89.7596 39.1579 83.878 38.1456 78.0189 38.6076C72.1598 39.0696 66.5096 40.9911 61.5837 44.1969C56.6577 47.4027 52.6127 51.7908 49.8177 56.9609C47.0226 62.1311 45.5665 67.9187 45.582 73.7959ZM108.507 80.5175V120.502H99.7715C95.7298 120.498 91.8548 118.891 88.9969 116.033C86.1391 113.175 84.5318 109.3 84.528 105.258V101.507H80.7765C76.1378 101.501 71.5746 100.333 67.5034 98.1099L63.4413 95.8872L62.1164 100.323C61.5368 102.22 60.5087 103.949 59.119 105.364C57.7293 106.779 56.0191 107.838 54.1331 108.452V81.4444L54.0069 80.9591C52.994 77.1807 52.7925 73.2306 53.4158 69.3687C54.039 65.5068 55.4729 61.8206 57.623 58.5526C59.7731 55.2846 62.5907 52.5089 65.8906 50.408C69.1904 48.3071 72.8977 46.9287 76.7685 46.3634C80.6393 45.7981 84.5859 46.0588 88.3487 47.1282C92.1116 48.1977 95.6054 50.0517 98.6002 52.5683C101.595 55.0849 104.023 58.2071 105.725 61.7295C107.427 65.2518 108.363 69.0946 108.473 73.0049H93.2587V80.5078L108.507 80.5175Z" fill="#515151"/>
</g>
<defs>
<clipPath id="clip0">
<rect width="113.931" height="128" fill="white" transform="translate(7)"/>
</clipPath>
</defs>
</svg>
